{
  "accessors": [
    {
      "bufferView": 2,
      "componentType": 5126,
      "count": 11831,
      "max": [
        0.9725297093391418,
        0.8773629665374756,
        0.9725298881530762
      ],
      "min": [
        -0.9725292921066284,
        -0.08378509432077408,
        -1.6074070930480957
      ],
      "type": "VEC3"
    },
    {
      "bufferView": 2,
      "byteOffset": 141972,
      "componentType": 5126,
      "count": 11831,
      "max": [
        0.9998891353607178,
        1.0,
        0.9998891353607178
      ],
      "min": [
        -0.9998891353607178,
        -1.0,
        -0.9955204129219055
      ],
      "type": "VEC3"
    },
    {
      "bufferView": 1,
      "componentType": 5126,
      "count": 11831,
      "max": [
        0.9671359658241272,
        0.9867635369300842
      ],
      "min": [
        0.013236509636044502,
        0.013236509636044502
      ],
      "type": "VEC2"
    },
    {
      "bufferView": 1,
      "byteOffset": 94648,
      "componentType": 5126,
      "count": 11831,
      "max": [
        0.9671359658241272,
        0.9867635369300842
      ],
      "min": [
        0.013236509636044502,
        0.013236509636044502
      ],
      "type": "VEC2"
    },
    {
      "bufferView": 1,
      "byteOffset": 189296,
      "componentType": 5126,
      "count": 11831,
      "max": [
        0.9671359658241272,
        0.9867635369300842
      ],
      "min": [
        0.013236509636044502,
        0.013236509636044502
      ],
      "type": "VEC2"
    },
    {
      "bufferView": 1,
      "byteOffset": 283944,
      "componentType": 5126,
      "count": 11831,
      "max": [
        0.9671359658241272,
        0.9867635369300842
      ],
      "min": [
        0.013236509636044502,
        0.013236509636044502
      ],
      "type": "VEC2"
    },
    {
      "bufferView": 0,
      "componentType": 5125,
      "count": 65472,
      "type": "SCALAR"
    },
    {
      "bufferView": 2,
      "byteOffset": 283944,
      "componentType": 5126,
      "count": 6530,
      "max": [
        0.8636689186096191,
        0.8598150014877319,
        0.8636689186096191
      ],
      "min": [
        -0.8636687397956848,
        -0.006965935695916414,
        -0.8636691570281982
      ],
      "type": "VEC3"
    },
    {
      "bufferView": 2,
      "byteOffset": 362304,
      "componentType": 5126,
      "count": 6530,
      "max": [
        0.9999598264694214,
        1.0,
        0.9999598264694214
      ],
      "min": [
        -0.9999598264694214,
        -1.0,
        -0.9999598264694214
      ],
      "type": "VEC3"
    },
    {
      "bufferView": 1,
      "byteOffset": 378592,
      "componentType": 5126,
      "count": 6530,
      "max": [
        0.9950972199440002,
        0.575892448425293
      ],
      "min": [
        0.004902759566903114,
        0.004902759566903114
      ],
      "type": "VEC2"
    },
    {
      "bufferView": 1,
      "byteOffset": 430832,
      "componentType": 5126,
      "count": 6530,
      "max": [
        0.9950972199440002,
        0.575892448425293
      ],
      "min": [
        0.004902759566903114,
        0.004902759566903114
      ],
      "type": "VEC2"
    },
    {
      "bufferView": 1,
      "byteOffset": 483072,
      "componentType": 5126,
      "count": 6530,
      "max": [
        0.9950972199440002,
        0.575892448425293
      ],
      "min": [
        0.004902759566903114,
        0.004902759566903114
      ],
      "type": "VEC2"
    },
    {
      "bufferView": 1,
      "byteOffset": 535312,
      "componentType": 5126,
      "count": 6530,
      "max": [
        0.9950972199440002,
        0.575892448425293
      ],
      "min": [
        0.004902759566903114,
        0.004902759566903114
      ],
      "type": "VEC2"
    },
    {
      "bufferView": 0,
      "byteOffset": 261888,
      "componentType": 5125,
      "count": 38400,
      "type": "SCALAR"
    },
    {
      "bufferView": 2,
      "byteOffset": 440664,
      "componentType": 5126,
      "count": 3057,
      "max": [
        1.085292100906372,
        0.07609522342681885,
        1.0852919816970825
      ],
      "min": [
        -1.0852915048599243,
        -0.1747923195362091,
        -1.0852912664413452
      ],
      "type": "VEC3"
    },
    {
      "bufferView": 2,
      "byteOffset": 477348,
      "componentType": 5126,
      "count": 3057,
      "max": [
        0.9945859313011169,
        1.0,
        0.9945859313011169
      ],
      "min": [
        -0.9945859313011169,
        -1.0,
        -0.9945859313011169
      ],
      "type": "VEC3"
    },
    {
      "bufferView": 1,
      "byteOffset": 587552,
      "componentType": 5126,
      "count": 3057,
      "max": [
        0.7988229393959045,
        0.9906436204910278
      ],
      "min": [
        0.009356332942843437,
        0.009356332942843437
      ],
      "type": "VEC2"
    },
    {
      "bufferView": 1,
      "byteOffset": 612008,
      "componentType": 5126,
      "count": 3057,
      "max": [
        0.7988229393959045,
        0.9906436204910278
      ],
      "min": [
        0.009356332942843437,
        0.009356332942843437
      ],
      "type": "VEC2"
    },
    {
      "bufferView": 1,
      "byteOffset": 636464,
      "componentType": 5126,
      "count": 3057,
      "max": [
        0.7988229393959045,
        0.9906436204910278
      ],
      "min": [
        0.009356332942843437,
        0.009356332942843437
      ],
      "type": "VEC2"
    },
    {
      "bufferView": 1,
      "byteOffset": 660920,
      "componentType": 5126,
      "count": 3057,
      "max": [
        0.7988229393959045,
        0.9906436204910278
      ],
      "min": [
        0.009356332942843437,
        0.009356332942843437
      ],
      "type": "VEC2"
    },
    {
      "bufferView": 0,
      "byteOffset": 415488,
      "componentType": 5125,
      "count": 14976,
      "type": "SCALAR"
    }
  ],
  "asset": {
    "extras": {
      "author": "senorp3dro (https://sketchfab.com/senorp3dro)",
      "license": "CC-BY-4.0 (http://creativecommons.org/licenses/by/4.0/)",
      "source": "https://sketchfab.com/3d-models/cup-of-coffee-f82264218618431d81b8a280076a786e",
      "title": "Cup of Coffee"
    },
    "generator": "Sketchfab-12.68.0",
    "version": "2.0"
  },
  "bufferViews": [
    {
      "buffer": 0,
      "byteLength": 475392,
      "name": "floatBufferViews",
      "target": 34963
    },
    {
      "buffer": 0,
      "byteLength": 685376,
      "byteOffset": 475392,
      "byteStride": 8,
      "name": "floatBufferViews",
      "target": 34962
    },
    {
      "buffer": 0,
      "byteLength": 514032,
      "byteOffset": 1160768,
      "byteStride": 12,
      "name": "floatBufferViews",
      "target": 34962
    }
  ],
  "buffers": [
    {
      "byteLength": 1674800,
      "uri": "scene.bin"
    }
  ],
  "extensionsRequired": [
    "KHR_materials_pbrSpecularGlossiness"
  ],
  "extensionsUsed": [
    "KHR_materials_pbrSpecularGlossiness"
  ],
  "images": [
    {
      "uri": "textures/CUP_Baked_diffuse.png"
    },
    {
      "uri": "textures/CUP_Baked_specularGlossiness.png"
    },
    {
      "uri": "textures/Coffee_Baked_diffuse.png"
    },
    {
      "uri": "textures/Coffee_Baked_specularGlossiness.png"
    },
    {
      "uri": "textures/Plate_Baked_diffuse.png"
    },
    {
      "uri": "textures/Plate_Baked_specularGlossiness.png"
    }
  ],
  "materials": [
    {
      "doubleSided": true,
      "extensions": {
        "KHR_materials_pbrSpecularGlossiness": {
          "diffuseFactor": [
            1.0,
            1.0,
            1.0,
            1.0
          ],
          "diffuseTexture": {
            "index": 0
          },
          "glossinessFactor": 1.0,
          "specularFactor": [
            1.0,
            1.0,
            1.0
          ],
          "specularGlossinessTexture": {
            "index": 1
          }
        }
      },
      "name": "CUP_Baked"
    },
    {
      "doubleSided": true,
      "extensions": {
        "KHR_materials_pbrSpecularGlossiness": {
          "diffuseFactor": [
            0.8346937720786288,
            0.8346937720786288,
            0.8346937720786288,
            1.0
          ],
          "diffuseTexture": {
            "index": 2
          },
          "glossinessFactor": 1.0,
          "specularFactor": [
            0.2692376678887815,
            0.2692376678887815,
            0.2692376678887815
          ],
          "specularGlossinessTexture": {
            "index": 3
          }
        }
      },
      "name": "Coffee_Baked"
    },
    {
      "doubleSided": true,
      "extensions": {
        "KHR_materials_pbrSpecularGlossiness": {
          "diffuseFactor": [
            1.0,
            1.0,
            1.0,
            1.0
          ],
          "diffuseTexture": {
            "index": 4
          },
          "glossinessFactor": 1.0,
          "specularFactor": [
            0.0,
            0.0,
            0.0
          ],
          "specularGlossinessTexture": {
            "index": 5
          }
        }
      },
      "name": "Plate_Baked"
    }
  ],
  "meshes": [
    {
      "name": "Object_0",
      "primitives": [
        {
          "attributes": {
            "NORMAL": 1,
            "POSITION": 0,
            "TEXCOORD_0": 2,
            "TEXCOORD_1": 3,
            "TEXCOORD_2": 4,
            "TEXCOORD_3": 5
          },
          "indices": 6,
          "material": 0,
          "mode": 4
        }
      ]
    },
    {
      "name": "Object_1",
      "primitives": [
        {
          "attributes": {
            "NORMAL": 8,
            "POSITION": 7,
            "TEXCOORD_0": 9,
            "TEXCOORD_1": 10,
            "TEXCOORD_2": 11,
            "TEXCOORD_3": 12
          },
          "indices": 13,
          "material": 1,
          "mode": 4
        }
      ]
    },
    {
      "name": "Object_2",
      "primitives": [
        {
          "attributes": {
            "NORMAL": 15,
            "POSITION": 14,
            "TEXCOORD_0": 16,
            "TEXCOORD_1": 17,
            "TEXCOORD_2": 18,
            "TEXCOORD_3": 19
          },
          "indices": 20,
          "material": 2,
          "mode": 4
        }
      ]
    }
  ],
  "nodes": [
    {
      "children": [
        1
      ],
      "matrix": [
        1.0,
        0.0,
        0.0,
        0.0,
        0.0,
        2.220446049250313e-16,
        -1.0,
        0.0,
        0.0,
        1.0,
        2.220446049250313e-16,
        0.0,
        0.0,
        5.551115123125783e-17,
        1.232595164407831e-32,
        1.0
      ],
      "name": "Sketchfab_model"
    },
    {
      "children": [
        2
      ],
      "name": "root"
    },
    {
      "children": [
        3,
        5,
        7
      ],
      "matrix": [
        1.0,
        0.0,
        0.0,
        0.0,
        0.0,
        2.220446049250313e-16,
        1.0,
        0.0,
        0.0,
        -1.0,
        2.220446049250313e-16,
        0.0,
        0.0,
        0.0,
        0.0,
        1.0
      ],
      "name": "GLTF_SceneRootNode"
    },
    {
      "children": [
        4
      ],
      "name": "Hrnek.001_0"
    },
    {
      "mesh": 0,
      "name": "Object_4"
    },
    {
      "children": [
        6
      ],
      "matrix": [
        1.0237385034561157,
        0.0,
        0.0,
        0.0,
        0.0,
        1.0237385034561157,
        0.0,
        0.0,
        0.0,
        0.0,
        1.0237385034561157,
        0.0,
        0.0,
        -0.010879004374146461,
        0.0,
        1.0
      ],
      "name": "Coffee.001_1"
    },
    {
      "mesh": 1,
      "name": "Object_6"
    },
    {
      "children": [
        8
      ],
      "name": "Podsalek.001_2"
    },
    {
      "mesh": 2,
      "name": "Object_8"
    }
  ],
  "samplers": [
    {
      "magFilter": 9729,
      "minFilter": 9987,
      "wrapS": 10497,
      "wrapT": 10497
    }
  ],
  "scene": 0,
  "scenes": [
    {
      "name": "Sketchfab_Scene",
      "nodes": [
        0
      ]
    }
  ],
  "textures": [
    {
      "sampler": 0,
      "source": 0
    },
    {
      "sampler": 0,
      "source": 1
    },
    {
      "sampler": 0,
      "source": 2
    },
    {
      "sampler": 0,
      "source": 3
    },
    {
      "sampler": 0,
      "source": 4
    },
    {
      "sampler": 0,
      "source": 5
    }
  ]
}
